<svg xmlns="http://www.w3.org/2000/svg" viewBox="0 0 100 100" width="100" height="100">
	<style>
		tspan { white-space:pre }
		.shp0 { fill: #ffff00 } 
	</style>
	<path id="Layer" fill-rule="evenodd" class="shp0" d="M0 0L100 0L100 100L0 100L0 0ZM26.28 83.56C28.5 88.28 32.89 92.17 40.39 92.17C48.72 92.17 54.44 87.72 54.44 78L54.44 45.89L45 45.89L45 77.78C45 82.56 43.06 83.78 40 83.78C36.78 83.78 35.44 81.56 33.94 78.94L26.28 83.56ZM59.5 82.56C62.28 88 67.89 92.17 76.67 92.17C85.56 92.17 92.22 87.56 92.22 79.06C92.22 71.22 87.72 67.72 79.72 64.28L77.39 63.28C73.33 61.56 71.61 60.39 71.61 57.61C71.61 55.33 73.33 53.56 76.11 53.56C78.78 53.56 80.56 54.72 82.17 57.61L89.44 52.78C86.39 47.44 82.06 45.39 76.11 45.39C67.72 45.39 62.33 50.72 62.33 57.78C62.33 65.44 66.83 69.06 73.61 71.94L75.94 72.94C80.28 74.83 82.83 76 82.83 79.22C82.83 81.89 80.33 83.83 76.44 83.83C71.83 83.83 69.17 81.44 67.17 78.11L59.5 82.56Z" />
</svg>